<svg width="24" height="24" viewBox="0 0 24 24" fill="none" xmlns="http://www.w3.org/2000/svg">
<mask id="path-1-inside-1" fill="white">
<path d="M2.00036 11.5C2.00036 9.42893 3.70436 7.75 5.80634 7.75C7.90831 7.75 9.61231 9.42893 9.6123 11.5C9.6123 13.5711 7.90831 15.25 5.80633 15.25C3.70436 15.25 2.00036 13.5711 2.00036 11.5Z"/>
</mask>
<path d="M2.00036 11.5C2.00036 9.42893 3.70436 7.75 5.80634 7.75C7.90831 7.75 9.61231 9.42893 9.6123 11.5C9.6123 13.5711 7.90831 15.25 5.80633 15.25C3.70436 15.25 2.00036 13.5711 2.00036 11.5Z" stroke="white" stroke-width="4" mask="url(#path-1-inside-1)"/>
<mask id="path-2-inside-2" fill="white">
<path d="M18.9996 6.75C18.9996 8.82107 17.2956 10.5 15.1937 10.5C13.0917 10.5 11.3877 8.82107 11.3877 6.75C11.3877 4.67893 13.0917 3 15.1937 3C17.2956 3 18.9996 4.67893 18.9996 6.75Z"/>
</mask>
<path d="M18.9996 6.75C18.9996 8.82107 17.2956 10.5 15.1937 10.5C13.0917 10.5 11.3877 8.82107 11.3877 6.75C11.3877 4.67893 13.0917 3 15.1937 3C17.2956 3 18.9996 4.67893 18.9996 6.75Z" stroke="white" stroke-width="4" mask="url(#path-2-inside-2)"/>
<mask id="path-3-inside-3" fill="white">
<path d="M18.9996 17.25C18.9996 19.3211 17.2956 21 15.1937 21C13.0917 21 11.3877 19.3211 11.3877 17.25C11.3877 15.1789 13.0917 13.5 15.1937 13.5C17.2956 13.5 18.9996 15.1789 18.9996 17.25Z"/>
</mask>
<path d="M18.9996 17.25C18.9996 19.3211 17.2956 21 15.1937 21C13.0917 21 11.3877 19.3211 11.3877 17.25C11.3877 15.1789 13.0917 13.5 15.1937 13.5C17.2956 13.5 18.9996 15.1789 18.9996 17.25Z" stroke="white" stroke-width="4" mask="url(#path-3-inside-3)"/>
<path d="M13.1807 8.8515C13.651 8.5619 13.7975 7.94591 13.5079 7.47564C13.2183 7.00537 12.6023 6.85891 12.132 7.1485L13.1807 8.8515ZM12.132 7.1485L8.07232 9.6485L9.12104 11.3515L13.1807 8.8515L12.132 7.1485Z" fill="white"/>
<path d="M12.657 16L8.08984 12.5" stroke="white" stroke-width="2"/>
</svg>
